# xmcd
#
# Track frame offsets:
#	150
#	18273
#	35416
#	47400
#	59852
#	73904
#	89494
#	105823
#	121564
#
# Disc length: 1918 seconds
#
# Revision: 1
# Processed by: cddbd v1.5.2PL0 Copyright (c) Steve Scherf et al.
# Submitted via: audiograbber 1.83.01
#
DISCID=6e077c09
DTITLE=Nelson Wright - Orphans and Relics
DYEAR=2014
DGENRE=
TTITLE0=Miller´s Wheel
TTITLE1=Orphans Of The Past
TTITLE2=Mama It Will Surele Do
TTITLE3=Who´s Fooling Who
TTITLE4=Falling Out Of Something
TTITLE5=Ten O´Clock Blues
TTITLE6=In Another Lifetime
TTITLE7=Once I Was Loved By You
TTITLE8=The Last Call Blues
EXTD=
EXTT0=
EXTT1=
EXTT2=
EXTT3=
EXTT4=
EXTT5=
EXTT6=
EXTT7=
EXTT8=
PLAYORDER=
